<svg width="101" height="101" viewBox="0 0 101 101" fill="none" xmlns="http://www.w3.org/2000/svg">
<circle cx="1.40286" cy="1.40286" r="1.40286" fill="white" fill-opacity="0.3"/>
<circle cx="1.40286" cy="55.9551" r="1.40286" fill="white" fill-opacity="0.3"/>
<circle cx="55.9552" cy="1.40286" r="1.40286" fill="white" fill-opacity="0.3"/>
<circle cx="55.9552" cy="55.9551" r="1.40286" fill="white" fill-opacity="0.3"/>
<circle cx="1.40286" cy="12.3133" r="1.40286" fill="white" fill-opacity="0.3"/>
<circle cx="1.40286" cy="66.8658" r="1.40286" fill="white" fill-opacity="0.3"/>
<circle cx="55.9552" cy="12.3133" r="1.40286" fill="white" fill-opacity="0.3"/>
<circle cx="55.9552" cy="66.8658" r="1.40286" fill="white" fill-opacity="0.3"/>
<circle cx="1.40286" cy="23.2239" r="1.40286" fill="white" fill-opacity="0.3"/>
<circle cx="1.40286" cy="77.7762" r="1.40286" fill="white" fill-opacity="0.3"/>
<circle cx="55.9552" cy="23.2239" r="1.40286" fill="white" fill-opacity="0.3"/>
<circle cx="55.9552" cy="77.7762" r="1.40286" fill="white" fill-opacity="0.3"/>
<circle cx="1.40286" cy="34.1343" r="1.40286" fill="white" fill-opacity="0.3"/>
<circle cx="1.40286" cy="88.6866" r="1.40286" fill="white" fill-opacity="0.3"/>
<circle cx="55.9552" cy="34.1343" r="1.40286" fill="white" fill-opacity="0.3"/>
<circle cx="55.9552" cy="88.6866" r="1.40286" fill="white" fill-opacity="0.3"/>
<circle cx="1.40286" cy="45.0447" r="1.40286" fill="white" fill-opacity="0.3"/>
<circle cx="1.40286" cy="99.5972" r="1.40286" fill="white" fill-opacity="0.3"/>
<circle cx="55.9552" cy="45.0447" r="1.40286" fill="white" fill-opacity="0.3"/>
<circle cx="55.9552" cy="99.5972" r="1.40286" fill="white" fill-opacity="0.3"/>
<circle cx="12.3133" cy="1.40286" r="1.40286" fill="white" fill-opacity="0.3"/>
<circle cx="12.3133" cy="55.9551" r="1.40286" fill="white" fill-opacity="0.3"/>
<circle cx="66.8656" cy="1.40286" r="1.40286" fill="white" fill-opacity="0.3"/>
<circle cx="66.8656" cy="55.9551" r="1.40286" fill="white" fill-opacity="0.3"/>
<circle cx="12.3133" cy="12.3133" r="1.40286" fill="white" fill-opacity="0.3"/>
<circle cx="12.3133" cy="66.8658" r="1.40286" fill="white" fill-opacity="0.3"/>
<circle cx="66.8656" cy="12.3133" r="1.40286" fill="white" fill-opacity="0.3"/>
<circle cx="66.8656" cy="66.8658" r="1.40286" fill="white" fill-opacity="0.3"/>
<circle cx="12.3133" cy="23.2239" r="1.40286" fill="white" fill-opacity="0.3"/>
<circle cx="12.3133" cy="77.7762" r="1.40286" fill="white" fill-opacity="0.3"/>
<circle cx="66.8656" cy="23.2239" r="1.40286" fill="white" fill-opacity="0.3"/>
<circle cx="66.8656" cy="77.7762" r="1.40286" fill="white" fill-opacity="0.3"/>
<circle cx="12.3133" cy="34.1343" r="1.40286" fill="white" fill-opacity="0.3"/>
<circle cx="12.3133" cy="88.6866" r="1.40286" fill="white" fill-opacity="0.3"/>
<circle cx="66.8656" cy="34.1343" r="1.40286" fill="white" fill-opacity="0.3"/>
<circle cx="66.8656" cy="88.6866" r="1.40286" fill="white" fill-opacity="0.3"/>
<circle cx="12.3133" cy="45.0447" r="1.40286" fill="white" fill-opacity="0.3"/>
<circle cx="12.3133" cy="99.5972" r="1.40286" fill="white" fill-opacity="0.3"/>
<circle cx="66.8656" cy="45.0447" r="1.40286" fill="white" fill-opacity="0.3"/>
<circle cx="66.8656" cy="99.5972" r="1.40286" fill="white" fill-opacity="0.3"/>
<circle cx="23.2238" cy="1.40286" r="1.40286" fill="white" fill-opacity="0.3"/>
<circle cx="23.2238" cy="55.9551" r="1.40286" fill="white" fill-opacity="0.3"/>
<circle cx="77.7762" cy="1.40286" r="1.40286" fill="white" fill-opacity="0.3"/>
<circle cx="77.7762" cy="55.9551" r="1.40286" fill="white" fill-opacity="0.3"/>
<circle cx="23.2238" cy="12.3133" r="1.40286" fill="white" fill-opacity="0.3"/>
<circle cx="23.2238" cy="66.8658" r="1.40286" fill="white" fill-opacity="0.3"/>
<circle cx="77.7762" cy="12.3133" r="1.40286" fill="white" fill-opacity="0.3"/>
<circle cx="77.7762" cy="66.8658" r="1.40286" fill="white" fill-opacity="0.3"/>
<circle cx="23.2238" cy="23.2239" r="1.40286" fill="white" fill-opacity="0.3"/>
<circle cx="23.2238" cy="77.7762" r="1.40286" fill="white" fill-opacity="0.3"/>
<circle cx="77.7762" cy="23.2239" r="1.40286" fill="white" fill-opacity="0.3"/>
<circle cx="77.7762" cy="77.7762" r="1.40286" fill="white" fill-opacity="0.3"/>
<circle cx="23.2238" cy="34.1343" r="1.40286" fill="white" fill-opacity="0.3"/>
<circle cx="23.2238" cy="88.6866" r="1.40286" fill="white" fill-opacity="0.3"/>
<circle cx="77.7762" cy="34.1343" r="1.40286" fill="white" fill-opacity="0.3"/>
<circle cx="77.7762" cy="88.6866" r="1.40286" fill="white" fill-opacity="0.3"/>
<circle cx="23.2238" cy="45.0447" r="1.40286" fill="white" fill-opacity="0.3"/>
<circle cx="23.2238" cy="99.5972" r="1.40286" fill="white" fill-opacity="0.3"/>
<circle cx="77.7762" cy="45.0447" r="1.40286" fill="white" fill-opacity="0.3"/>
<circle cx="77.7762" cy="99.5972" r="1.40286" fill="white" fill-opacity="0.3"/>
<circle cx="34.1342" cy="1.40286" r="1.40286" fill="white" fill-opacity="0.3"/>
<circle cx="34.1342" cy="55.9551" r="1.40286" fill="white" fill-opacity="0.3"/>
<circle cx="88.6866" cy="1.40286" r="1.40286" fill="white" fill-opacity="0.3"/>
<circle cx="88.6866" cy="55.9551" r="1.40286" fill="white" fill-opacity="0.3"/>
<circle cx="34.1342" cy="12.3133" r="1.40286" fill="white" fill-opacity="0.3"/>
<circle cx="34.1342" cy="66.8658" r="1.40286" fill="white" fill-opacity="0.3"/>
<circle cx="88.6866" cy="12.3133" r="1.40286" fill="white" fill-opacity="0.3"/>
<circle cx="88.6866" cy="66.8658" r="1.40286" fill="white" fill-opacity="0.3"/>
<circle cx="34.1342" cy="23.2239" r="1.40286" fill="white" fill-opacity="0.3"/>
<circle cx="34.1342" cy="77.7762" r="1.40286" fill="white" fill-opacity="0.3"/>
<circle cx="88.6866" cy="23.2239" r="1.40286" fill="white" fill-opacity="0.3"/>
<circle cx="88.6866" cy="77.7762" r="1.40286" fill="white" fill-opacity="0.3"/>
<circle cx="34.1342" cy="34.1343" r="1.40286" fill="white" fill-opacity="0.3"/>
<circle cx="34.1342" cy="88.6866" r="1.40286" fill="white" fill-opacity="0.3"/>
<circle cx="88.6866" cy="34.1343" r="1.40286" fill="white" fill-opacity="0.3"/>
<circle cx="88.6866" cy="88.6866" r="1.40286" fill="white" fill-opacity="0.3"/>
<circle cx="34.1342" cy="45.0447" r="1.40286" fill="white" fill-opacity="0.3"/>
<circle cx="34.1342" cy="99.5972" r="1.40286" fill="white" fill-opacity="0.3"/>
<circle cx="88.6866" cy="45.0447" r="1.40286" fill="white" fill-opacity="0.3"/>
<circle cx="88.6866" cy="99.5972" r="1.40286" fill="white" fill-opacity="0.3"/>
<circle cx="45.0448" cy="1.40286" r="1.40286" fill="white" fill-opacity="0.3"/>
<circle cx="45.0448" cy="55.9551" r="1.40286" fill="white" fill-opacity="0.3"/>
<circle cx="99.5971" cy="1.40286" r="1.40286" fill="white" fill-opacity="0.3"/>
<circle cx="99.5971" cy="55.9551" r="1.40286" fill="white" fill-opacity="0.3"/>
<circle cx="45.0448" cy="12.3133" r="1.40286" fill="white" fill-opacity="0.3"/>
<circle cx="45.0448" cy="66.8658" r="1.40286" fill="white" fill-opacity="0.3"/>
<circle cx="99.5971" cy="12.3133" r="1.40286" fill="white" fill-opacity="0.3"/>
<circle cx="99.5971" cy="66.8658" r="1.40286" fill="white" fill-opacity="0.3"/>
<circle cx="45.0448" cy="23.2239" r="1.40286" fill="white" fill-opacity="0.3"/>
<circle cx="45.0448" cy="77.7762" r="1.40286" fill="white" fill-opacity="0.3"/>
<circle cx="99.5971" cy="23.2239" r="1.40286" fill="white" fill-opacity="0.3"/>
<circle cx="99.5971" cy="77.7762" r="1.40286" fill="white" fill-opacity="0.3"/>
<circle cx="45.0448" cy="34.1343" r="1.40286" fill="white" fill-opacity="0.3"/>
<circle cx="45.0448" cy="88.6866" r="1.40286" fill="white" fill-opacity="0.3"/>
<circle cx="99.5971" cy="34.1343" r="1.40286" fill="white" fill-opacity="0.3"/>
<circle cx="99.5971" cy="88.6866" r="1.40286" fill="white" fill-opacity="0.3"/>
<circle cx="45.0448" cy="45.0447" r="1.40286" fill="white" fill-opacity="0.3"/>
<circle cx="45.0448" cy="99.5972" r="1.40286" fill="white" fill-opacity="0.3"/>
<circle cx="99.5971" cy="45.0447" r="1.40286" fill="white" fill-opacity="0.3"/>
<circle cx="99.5971" cy="99.5972" r="1.40286" fill="white" fill-opacity="0.3"/>
</svg>
